<svg width="71" height="12" xmlns="http://www.w3.org/2000/svg" fill="none">

 <g>
  <title>Layer 1</title>
  <path id="svg_1" fill="#333333" d="m0.328,12l0,-11.2l2.144,0l4.768,7.904l-1.136,0l4.688,-7.904l2.128,0l0.032,11.2l-2.432,0l-0.016,-7.472l0.448,0l-3.744,6.288l-1.168,0l-3.824,-6.288l0.544,0l0,7.472l-2.432,0zm13.4893,0l4.992,-11.2l2.56,0l5.008,11.2l-2.72,0l-4.096,-9.888l1.024,0l-4.112,9.888l-2.656,0zm2.496,-2.4l0.688,-1.968l5.76,0l0.704,1.968l-7.152,0zm10.906,2.4l0,-11.2l4.848,0c1.0026,0 1.8666,0.16533 2.592,0.496c0.7253,0.32 1.2853,0.784 1.68,1.392c0.3946,0.608 0.592,1.33333 0.592,2.176c0,0.832 -0.1974,1.552 -0.592,2.16c-0.3947,0.59733 -0.9547,1.056 -1.68,1.376c-0.7254,0.32 -1.5894,0.48 -2.592,0.48l-3.408,0l1.152,-1.136l0,4.256l-2.592,0zm7.12,0l-2.8,-4.064l2.768,0l2.832,4.064l-2.8,0zm-4.528,-3.968l-1.152,-1.216l3.264,0c0.8,0 1.3973,-0.17067 1.792,-0.512c0.3946,-0.352 0.592,-0.832 0.592,-1.44c0,-0.61867 -0.1974,-1.09867 -0.592,-1.44c-0.3947,-0.34133 -0.992,-0.512 -1.792,-0.512l-3.264,0l1.152,-1.232l0,6.352zm8.8536,3.968l0,-11.2l4.848,0c1.0026,0 1.8666,0.16533 2.592,0.496c0.7253,0.32 1.2853,0.784 1.68,1.392c0.3946,0.608 0.592,1.33333 0.592,2.176c0,0.832 -0.1974,1.552 -0.592,2.16c-0.3947,0.608 -0.9547,1.07733 -1.68,1.408c-0.7254,0.32 -1.5894,0.48 -2.592,0.48l-3.408,0l1.152,-1.168l0,4.256l-2.592,0zm2.592,-3.968l-1.152,-1.232l3.264,0c0.8,0 1.3973,-0.17067 1.792,-0.512c0.3946,-0.34133 0.592,-0.816 0.592,-1.424c0,-0.61867 -0.1974,-1.09867 -0.592,-1.44c-0.3947,-0.34133 -0.992,-0.512 -1.792,-0.512l-3.264,0l1.152,-1.232l0,6.352zm8.6505,3.968l0,-11.2l2.592,0l0,9.088l5.616,0l0,2.112l-8.208,0zm7.9267,0l4.992,-11.2l2.56,0l5.008,11.2l-2.72,0l-4.096,-9.888l1.024,0l-4.112,9.888l-2.656,0zm2.496,-2.4l0.688,-1.968l5.76,0l0.704,1.968l-7.152,0z"/>
 </g>
</svg>