<svg width="24" height="24" viewBox="0 0 24 24" fill="none" xmlns="http://www.w3.org/2000/svg">
<path fill-rule="evenodd" clip-rule="evenodd" d="M11.47 17.3028C11.1771 17.5957 11.1771 18.0706 11.47 18.3635C11.7629 18.6564 12.2378 18.6564 12.5307 18.3635L18.3605 12.5337C18.3722 12.5222 18.3834 12.5103 18.3943 12.498C18.5121 12.3656 18.5837 12.1911 18.5837 11.9999C18.5837 11.9022 18.565 11.8089 18.531 11.7234C18.4944 11.6309 18.4388 11.5443 18.364 11.4695L12.5307 5.63617C12.2378 5.34328 11.7629 5.34328 11.47 5.63617C11.1771 5.92907 11.1771 6.40394 11.47 6.69683L16.023 11.2499L6.16699 11.2499C5.75278 11.2499 5.41699 11.5856 5.41699 11.9999C5.41699 12.4141 5.75278 12.7499 6.16699 12.7499L16.023 12.7499L11.47 17.3028Z" fill="#333333"/>
</svg>
