<svg width="24" height="24" viewBox="0 0 24 24" fill="none" xmlns="http://www.w3.org/2000/svg">
<path fill-rule="evenodd" clip-rule="evenodd" d="M4.48633 5.29028C4.90054 5.29028 5.23633 5.62607 5.23633 6.04028V9.04028H8.23633C8.65054 9.04028 8.98633 9.37607 8.98633 9.79028C8.98633 10.2045 8.65054 10.5403 8.23633 10.5403H4.48633C4.07211 10.5403 3.73633 10.2045 3.73633 9.79028V6.04028C3.73633 5.62607 4.07211 5.29028 4.48633 5.29028Z" fill="#7AC70C"/>
<path fill-rule="evenodd" clip-rule="evenodd" d="M10.5118 4.52152C11.9909 4.2273 13.524 4.3783 14.9173 4.95542C16.3106 5.53254 17.5014 6.50986 18.3393 7.76378C19.1771 9.0177 19.6243 10.4919 19.6243 12C19.6243 13.5081 19.1771 14.9823 18.3393 16.2362C17.5014 17.4902 16.3106 18.4675 14.9173 19.0446C13.524 19.6217 11.9909 19.7727 10.5118 19.4785C9.03267 19.1843 7.67402 18.4581 6.60765 17.3917C6.31475 17.0988 6.31475 16.6239 6.60765 16.331C6.90054 16.0381 7.37541 16.0381 7.66831 16.331C8.5249 17.1876 9.61628 17.771 10.8044 18.0073C11.9925 18.2436 13.2241 18.1224 14.3433 17.6588C15.4625 17.1952 16.4191 16.4101 17.0921 15.4029C17.7651 14.3956 18.1243 13.2114 18.1243 12C18.1243 10.7886 17.7651 9.60439 17.0921 8.59714C16.4191 7.58988 15.4625 6.80483 14.3433 6.34124C13.2241 5.87765 11.9925 5.75636 10.8044 5.99269C9.61628 6.22903 8.5249 6.81238 7.66831 7.66897L5.01666 10.3206C4.72377 10.6135 4.24889 10.6135 3.956 10.3206C3.6631 10.0277 3.6631 9.55286 3.956 9.25996L6.60765 6.60831C7.67402 5.54194 9.03267 4.81573 10.5118 4.52152Z" fill="#7AC70C"/>
</svg>
