<svg width="24" height="24" viewBox="0 0 24 24" fill="none" xmlns="http://www.w3.org/2000/svg">
<path fill-rule="evenodd" clip-rule="evenodd" d="M5.75 10.5C5.75 7.87665 7.87665 5.75 10.5 5.75C13.1234 5.75 15.25 7.87665 15.25 10.5C15.25 13.1234 13.1234 15.25 10.5 15.25C7.87665 15.25 5.75 13.1234 5.75 10.5ZM10.5 4.25C7.04822 4.25 4.25 7.04822 4.25 10.5C4.25 13.9518 7.04822 16.75 10.5 16.75C11.9616 16.75 13.3059 16.2483 14.3703 15.4078C14.3985 15.4512 14.4316 15.4923 14.4697 15.5303L19.4697 20.5303C19.7626 20.8232 20.2374 20.8232 20.5303 20.5303C20.8232 20.2374 20.8232 19.7626 20.5303 19.4697L15.5303 14.4697C15.4923 14.4316 15.4512 14.3985 15.4078 14.3703C16.2483 13.3059 16.75 11.9616 16.75 10.5C16.75 7.04822 13.9518 4.25 10.5 4.25Z" fill="#808080"/>
<path fill-rule="evenodd" clip-rule="evenodd" d="M5.75 10.5C5.75 7.87665 7.87665 5.75 10.5 5.75C13.1234 5.75 15.25 7.87665 15.25 10.5C15.25 13.1234 13.1234 15.25 10.5 15.25C7.87665 15.25 5.75 13.1234 5.75 10.5ZM10.5 4.25C7.04822 4.25 4.25 7.04822 4.25 10.5C4.25 13.9518 7.04822 16.75 10.5 16.75C11.9616 16.75 13.3059 16.2483 14.3703 15.4078C14.3985 15.4512 14.4316 15.4923 14.4697 15.5303L19.4697 20.5303C19.7626 20.8232 20.2374 20.8232 20.5303 20.5303C20.8232 20.2374 20.8232 19.7626 20.5303 19.4697L15.5303 14.4697C15.4923 14.4316 15.4512 14.3985 15.4078 14.3703C16.2483 13.3059 16.75 11.9616 16.75 10.5C16.75 7.04822 13.9518 4.25 10.5 4.25Z" fill="#828282"/>
</svg>
