<svg width="16" height="18" viewBox="0 0 16 18" fill="none" xmlns="http://www.w3.org/2000/svg">
<path fill-rule="evenodd" clip-rule="evenodd" d="M1.125 3.30469L14.875 3.30469C15.2892 3.30469 15.625 3.64047 15.625 4.05469C15.625 4.4689 15.2892 4.80469 14.875 4.80469L1.125 4.80469C0.710787 4.80469 0.375 4.46891 0.375 4.05469C0.375 3.64048 0.710786 3.30469 1.125 3.30469Z" fill="white"/>
<path fill-rule="evenodd" clip-rule="evenodd" d="M5.39383 3.93739C5.80388 3.87881 6.18378 4.16374 6.24236 4.57379L7.90902 16.2405C7.9676 16.6505 7.68268 17.0304 7.27263 17.089C6.86258 17.1476 6.48268 16.8626 6.4241 16.4526L4.75743 4.78592C4.69885 4.37587 4.98378 3.99597 5.39383 3.93739Z" fill="white"/>
<path fill-rule="evenodd" clip-rule="evenodd" d="M2.06461 3.51982C2.47493 3.46322 2.85345 3.74998 2.91005 4.16031L4.4874 15.5961H11.5134L13.0908 4.16031C13.1474 3.74998 13.5259 3.46322 13.9362 3.51982C14.3466 3.57642 14.6333 3.95494 14.5767 4.36526L12.91 16.4486C12.8589 16.8197 12.5417 17.0961 12.1671 17.0961H3.83375C3.45914 17.0961 3.14197 16.8197 3.09078 16.4486L1.42412 4.36526C1.36752 3.95494 1.65428 3.57642 2.06461 3.51982Z" fill="white"/>
<path fill-rule="evenodd" clip-rule="evenodd" d="M4.71079 1.39047C5.08586 1.0154 5.59457 0.804688 6.125 0.804688H9.875C10.4054 0.804688 10.9141 1.0154 11.2892 1.39047C11.6643 1.76555 11.875 2.27425 11.875 2.80469V4.05469C11.875 4.4689 11.5392 4.80469 11.125 4.80469C10.7108 4.80469 10.375 4.4689 10.375 4.05469V2.80469C10.375 2.67208 10.3223 2.5449 10.2286 2.45113C10.1348 2.35737 10.0076 2.30469 9.875 2.30469H6.125C5.99239 2.30469 5.86522 2.35737 5.77145 2.45113C5.67768 2.5449 5.625 2.67208 5.625 2.80469V4.05469C5.625 4.4689 5.28921 4.80469 4.875 4.80469C4.46079 4.80469 4.125 4.4689 4.125 4.05469V2.80469C4.125 2.27425 4.33571 1.76555 4.71079 1.39047Z" fill="white"/>
</svg>
